# xmcd
#
# Track frame offsets:
#	150
#	9380
#	18948
#	36096
#	49486
#	61578
#	70769
#	81187
#	92944
#	106671
#	122799
#	136441
#	147734
#	158473
#	174415
#	187085
#
# Disc length: 2709 seconds
#
# Revision: 1
# Processed by: cddbd v1.5.2PL0 Copyright (c) Steve Scherf et al.
# Submitted via: audiograbber 1.83.01
#
DISCID=d40a9310
DTITLE=Various Artist - Trucker&Cowboys CD1
DYEAR=1900
DGENRE=Country
TTITLE0=Ricky King - Riders in the Sky
TTITLE1=Ralf Paulsen - Bonanza
TTITLE2=Ladies Country Express - Adios, alter Truck
TTITLE3=Medium Terzett - Von den blauen Bergen kommen wir
TTITLE4=Ted Herold - Moonlight
TTITLE5=Western Railroad - Geboren, um Dieseltruck zu fahren
TTITLE6=Peter Beil - Hello, Mary-Lou
TTITLE7=Gus Backus - Brauner Bär und weiße Taube
TTITLE8=Gunter Gabriel - Ohne Moos nichts los
TTITLE9=Tennessee Ernest G. - Solange bis die Räder glüh'n
TTITLE10=Ralf Paulsen - Fang doch den Morgen mal mit Countrymusik an
TTITLE11=Western Railroad - Dieselqualm
TTITLE12=Mallorca Killers - Winchester Cathedral
TTITLE13=Die Partygeier - 7000 Rinder
TTITLE14=Peter Orloff - Wer hat ein Herz, das nie bricht
TTITLE15=Harold MC Gehrke - Setz dich nicht gleich auf jedes Pferd
EXTD=
EXTT0=
EXTT1=
EXTT2=
EXTT3=
EXTT4=
EXTT5=
EXTT6=
EXTT7=
EXTT8=
EXTT9=
EXTT10=
EXTT11=
EXTT12=
EXTT13=
EXTT14=
EXTT15=
PLAYORDER=
